<svg xmlns="http://www.w3.org/2000/svg" viewBox="0 0 27.53 32"><defs><style>.cls-1{fill:#fff;}</style></defs><title>Recurso 7</title><g id="Capa_2" data-name="Capa 2"><g id="Capa_1-2" data-name="Capa 1"><path class="cls-1" d="M15.28,19.94a.7.7,0,0,0,.43-.41l.91-1.77,1-2,1.54-3a.52.52,0,0,0,0-.51.5.5,0,0,0-.44-.22H17.9a.68.68,0,0,1-.58-.28.67.67,0,0,1,0-.63l.28-.72,1.15-3a.52.52,0,0,0,0-.48.49.49,0,0,0-.42-.19H13.51a.46.46,0,0,0-.52.48c0,.49-.11,1-.17,1.46l-.36,2.93-.09.77c-.06.53-.13,1.09-.2,1.63a.62.62,0,0,0,.09.48.59.59,0,0,0,.44.15h1.71a.77.77,0,0,1,.6.23.75.75,0,0,1,.13.62l-.12.72c-.17,1-.34,2-.51,3a.61.61,0,0,0,.13.5A.6.6,0,0,0,15.28,19.94Z"/><path class="cls-1" d="M27.29,10.06A12,12,0,0,0,19.41.89,14.14,14.14,0,0,0,11,.43a10.19,10.19,0,0,0-6,3.69,9.76,9.76,0,0,0-2.29,6.41,9.91,9.91,0,0,0,.08,1,1.56,1.56,0,0,1-.17.38l-.1.18-.76,1.37L.28,16.07A2.28,2.28,0,0,0,.1,17.85a2.62,2.62,0,0,0,.49.92,2.83,2.83,0,0,0,1.29.84A1.36,1.36,0,0,0,2,20.84l0,.11a1.77,1.77,0,0,0,.63,1.66A3.42,3.42,0,0,0,3.8,26.19a5.73,5.73,0,0,0,1.08.6c.17.07.35.15.56.21a20.06,20.06,0,0,0,3.81.73l.26,0c1.68.22,2.44,1.71,3.18,3.47a1.24,1.24,0,0,0,1.72.63l4-2.07,1.42-.73,3.69-1.91.13-.07L23.8,27a1.34,1.34,0,0,0,.34-1.33,6.7,6.7,0,0,1-.28-2,7.63,7.63,0,0,1,.8-2.75c.25-.53.52-1.06.77-1.58l0,0c.32-.64.65-1.3,1-2A11.29,11.29,0,0,0,27.29,10.06ZM21.86,25.54,19,27l-4.67,2.41c-.72-1.54-2-3.52-4.52-3.86l-.27,0a18.12,18.12,0,0,1-3.41-.64l-.38-.15a3.5,3.5,0,0,1-.64-.36,1.21,1.21,0,0,1-.38-1.26v0c0-.08.05-.16.08-.26a1.62,1.62,0,0,0-.6-1.77,1.22,1.22,0,0,0-.09-1,1.87,1.87,0,0,0,.19-1.3A1.58,1.58,0,0,0,3,17.61l-.22-.05a1,1,0,0,1-.46-.21.36.36,0,0,1-.06-.12c0-.06,0-.08,0-.09l1.43-2.6,0-.05.73-1.32,0-.08a3.59,3.59,0,0,0,.5-1.32l0-.17,0-.17a7.62,7.62,0,0,1-.09-1,7.51,7.51,0,0,1,1.81-5,8,8,0,0,1,4.8-2.92,11.94,11.94,0,0,1,7.15.36,9.93,9.93,0,0,1,6.52,7.57,9.13,9.13,0,0,1-.72,5.81c-.3.64-.62,1.29-.94,1.93s-.54,1.08-.8,1.63a9.75,9.75,0,0,0-1,3.53A7.49,7.49,0,0,0,21.86,25.54Z"/></g></g></svg>