<svg xmlns="http://www.w3.org/2000/svg" viewBox="0 0 26 41.49"><title>Recurso 1</title><style>path {fill:#2C8FE5}</style><g id="Capa_2" data-name="Capa 2"><g id="Capa_1-2" data-name="Capa 1"><path d="M17.52,30.52h5.09A3.39,3.39,0,0,0,26,27.14V6.88l-.33-.33L19.45.33,19.12,0H3.39A3.39,3.39,0,0,0,0,3.4V27.13a3.39,3.39,0,0,0,3.39,3.4H8.48a1.13,1.13,0,0,0,0-2.26H3.39a1.13,1.13,0,0,1-1.13-1.13V3.4A1.13,1.13,0,0,1,3.39,2.26H18.65l-.8-.33,6.22,6.22-.33-.8V27.14a1.13,1.13,0,0,1-1.13,1.12H17.52a1.13,1.13,0,0,0,0,2.26Z"/><path d="M17.85,8.71a1.13,1.13,0,0,1-.33-.8V1.7a1.13,1.13,0,0,1,2.26,0V6.78h5.09a1.13,1.13,0,1,1,0,2.26H18.65A1.13,1.13,0,0,1,17.85,8.71Z"/><path d="M18.4,33.13l-4.27,4.43V18.65a1.13,1.13,0,1,0-2.26,0V37.56L7.6,33.13A1.13,1.13,0,0,0,6,34.7l6.22,6.45.09.07.09.08.11.06.09,0,.12,0,.09,0h.44l.11,0,.1,0,.1-.05.09,0,.08-.06.09-.07L20,34.7a1.13,1.13,0,1,0-1.63-1.57Z"/></g></g></svg>