<svg xmlns="http://www.w3.org/2000/svg" viewBox="0 0 34 31.14"><defs><style>.cls-1{fill:#fff;}</style></defs><title>Recurso 12</title><g id="Capa_2" data-name="Capa 2"><g id="Capa_1-2" data-name="Capa 1"><path class="cls-1" d="M15.77,26.21H9.36V11.43h6.41Zm-4.43-2H13.8V13.4H11.33Z"/><path class="cls-1" d="M25.13,26.21H18.72V11.43h6.41Zm-4.43-2h2.46V13.4H20.7Z"/><path class="cls-1" d="M34,31.14H0v-6.9H3.94V13.4H0V7.83L17.25,0,34,7.83V13.4H30.06V24.24H34Zm-32-2H32v-3H28.09V11.43H32V9.12L17.25,2.17,2,9.12v2.32H5.91V26.21H2Z"/><path class="cls-1" d="M17.25,10.45a3,3,0,1,1,3-3A3,3,0,0,1,17.25,10.45Zm0-3.94a1,1,0,1,0,1,1A1,1,0,0,0,17.25,6.5Z"/></g></g></svg>