<svg xmlns="http://www.w3.org/2000/svg" viewBox="0 0 34 31.82"><defs><style>.cls-1{fill:#fff;}</style></defs><title>Recurso 13</title><g id="Capa_2" data-name="Capa 2"><g id="Capa_1-2" data-name="Capa 1"><path class="cls-1" d="M25.53,24.2l-.3,0v3.41A2.47,2.47,0,0,1,22.76,30H4.24a2.46,2.46,0,0,1-2.46-2.47V4.24A2.46,2.46,0,0,1,4.24,1.78H22.76a2.47,2.47,0,0,1,2.47,2.46v3l.3,0a8,8,0,0,1,1.19,0l.29,0v-3A4.25,4.25,0,0,0,22.76,0H4.24A4.25,4.25,0,0,0,0,4.24V27.58a4.25,4.25,0,0,0,4.24,4.25H22.76A4.25,4.25,0,0,0,27,27.58V24.19l-.29,0A7.94,7.94,0,0,1,25.53,24.2Z"/><path class="cls-1" d="M17.74,15.31H5.91v1H17.72v-.29c0-.12,0-.24,0-.36a.68.68,0,0,1,0-.09Z"/><path class="cls-1" d="M18.57,19.46l-.08-.15H5.91v1H19.08l-.26-.42C18.74,19.78,18.65,19.62,18.57,19.46Z"/><rect class="cls-1" x="5.91" y="7.06" width="15.19" height="1.04"/><path class="cls-1" d="M18.57,12c.08-.16.16-.31.25-.47l.26-.42H5.91v1H18.49Z"/><rect class="cls-1" x="5.91" y="23.34" width="15.19" height="1.04"/><path class="cls-1" d="M27.62,15.49a5.78,5.78,0,0,0-1.1-.57,5.62,5.62,0,0,1-.78-.4.52.52,0,0,1-.23-.58.58.58,0,0,1,.44-.49,1.81,1.81,0,0,1,.89,0,2,2,0,0,1,.71.26l.28.17L28,13.4l.2-.5a.37.37,0,0,0-.19-.43l-.12-.06a3,3,0,0,0-.49-.19,5,5,0,0,0-.54-.1v-1h-1.2v1.1a2.44,2.44,0,0,0-.89.43A1.91,1.91,0,0,0,24,14.11a1.77,1.77,0,0,0,.64,1.4,4.44,4.44,0,0,0,1.17.66,3.25,3.25,0,0,1,.82.43.81.81,0,0,1,.32.74.74.74,0,0,1-.48.58A1.42,1.42,0,0,1,26,18a2.47,2.47,0,0,1-1.3-.33l-.44-.24-.17.49-.15.41a.37.37,0,0,0,.17.47,2.9,2.9,0,0,0,.92.35l.48.07v1.06H26.8V19.17a3.32,3.32,0,0,0,.39-.13,2,2,0,0,0,1.28-1.6A2,2,0,0,0,27.62,15.49Z"/><path class="cls-1" d="M26.22,7.93A7.78,7.78,0,1,0,34,15.7,7.79,7.79,0,0,0,26.22,7.93Zm6,7.78a6,6,0,1,1-6-6A6,6,0,0,1,32.22,15.7Z"/></g></g></svg>