<svg xmlns="http://www.w3.org/2000/svg" viewBox="0 0 32 32"><defs><style>.cls-1{fill:#fff;}</style></defs><title>Recurso 9</title><g id="Capa_2" data-name="Capa 2"><g id="Capa_1-2" data-name="Capa 1"><path class="cls-1" d="M31.44,13.67a2,2,0,0,0-1.79-1H27.9A12.33,12.33,0,0,0,26.82,10l1.25-1.24a2.05,2.05,0,0,0,.53-2A4.79,4.79,0,0,0,27.33,4.7a4.86,4.86,0,0,0-2.06-1.27,2.05,2.05,0,0,0-2,.52L22,5.19a12.33,12.33,0,0,0-2.6-1.08V2.35a2.05,2.05,0,0,0-1-1.79A4.78,4.78,0,0,0,16,0h0a4.79,4.79,0,0,0-2.35.56,2,2,0,0,0-1,1.79V4.1A12.3,12.3,0,0,0,10,5.18L8.77,3.93a2,2,0,0,0-2-.53A4.79,4.79,0,0,0,4.7,4.67,4.8,4.8,0,0,0,3.43,6.73a2.06,2.06,0,0,0,.52,2L5.19,10a12.33,12.33,0,0,0-1.08,2.6H2.35a2.05,2.05,0,0,0-1.79,1A4.8,4.8,0,0,0,0,16a4.78,4.78,0,0,0,.56,2.36,2,2,0,0,0,1.78,1H4.1A12.33,12.33,0,0,0,5.18,22L3.93,23.23a2.05,2.05,0,0,0-.53,2A4.77,4.77,0,0,0,4.67,27.3a4.79,4.79,0,0,0,2.06,1.27,2.05,2.05,0,0,0,2-.52L10,26.81a12.36,12.36,0,0,0,2.6,1.08v1.76a2.05,2.05,0,0,0,1,1.79A4.78,4.78,0,0,0,16,32h0a4.79,4.79,0,0,0,2.35-.56,2,2,0,0,0,1-1.79V27.9A12.35,12.35,0,0,0,22,26.82l1.24,1.24a2.06,2.06,0,0,0,2,.53,5.23,5.23,0,0,0,3.34-3.32,2,2,0,0,0-.52-2L26.81,22a12.33,12.33,0,0,0,1.08-2.6h1.76a2,2,0,0,0,1.79-1A4.79,4.79,0,0,0,32,16,4.79,4.79,0,0,0,31.44,13.67Zm-2,3.38H27.75a2.18,2.18,0,0,0-2.11,1.59,10,10,0,0,1-1,2.35A2.18,2.18,0,0,0,25,23.6l1.2,1.2a3.07,3.07,0,0,1-1.45,1.45L23.57,25A2.18,2.18,0,0,0,21,24.68a9.9,9.9,0,0,1-2.35,1A2.18,2.18,0,0,0,17,27.76v1.69a2.68,2.68,0,0,1-1,.18h0a2.69,2.69,0,0,1-1-.18V27.76a2.18,2.18,0,0,0-1.59-2.12,10,10,0,0,1-2.35-1A2.18,2.18,0,0,0,8.4,25l-1.2,1.2a2.69,2.69,0,0,1-.85-.6,2.66,2.66,0,0,1-.6-.85L7,23.57A2.18,2.18,0,0,0,7.32,21a9.92,9.92,0,0,1-1-2.35A2.18,2.18,0,0,0,4.24,17H2.55a3.07,3.07,0,0,1,0-2.05H4.25a2.18,2.18,0,0,0,2.11-1.59,10,10,0,0,1,1-2.35A2.18,2.18,0,0,0,7,8.4L5.78,7.2a2.68,2.68,0,0,1,.6-.85,2.69,2.69,0,0,1,.85-.6L8.43,7A2.18,2.18,0,0,0,11,7.32a9.89,9.89,0,0,1,2.35-1A2.18,2.18,0,0,0,15,4.24V2.55a2.68,2.68,0,0,1,1-.18,2.43,2.43,0,0,1,1,.18V4.24a2.18,2.18,0,0,0,1.59,2.12,10,10,0,0,1,2.35,1A2.18,2.18,0,0,0,23.6,7l1.2-1.2a2.72,2.72,0,0,1,.85.6,2.69,2.69,0,0,1,.6.85L25,8.43A2.18,2.18,0,0,0,24.68,11a9.94,9.94,0,0,1,1,2.35A2.18,2.18,0,0,0,27.76,15h1.69a2.66,2.66,0,0,1,.18,1A2.69,2.69,0,0,1,29.45,17Z"/><path class="cls-1" d="M16,9.55h0a6.45,6.45,0,0,0,0,12.9h0A6.46,6.46,0,0,0,22.45,16h0A6.46,6.46,0,0,0,16,9.55Zm0,10.52h0a4.08,4.08,0,0,1,0-8.15h0a4.08,4.08,0,0,1,0,8.15Z"/></g></g></svg>