<svg xmlns="http://www.w3.org/2000/svg" viewBox="0 0 32 32"><defs><style>.cls-1{fill:#fff;}</style></defs><title>Recurso 10</title><g id="Capa_2" data-name="Capa 2"><g id="Capa_1-2" data-name="Capa 1"><path class="cls-1" d="M16,0a4.27,4.27,0,1,0,4.27,4.27A4.28,4.28,0,0,0,16,0Zm0,2.13a2.13,2.13,0,1,1-2.13,2.13A2.12,2.12,0,0,1,16,2.13ZM6,3.2A3.91,3.91,0,1,0,10,7.11,3.93,3.93,0,0,0,6,3.2ZM26,3.2a3.91,3.91,0,1,0,3.91,3.91A3.93,3.93,0,0,0,26,3.2ZM6,5.33A1.78,1.78,0,1,1,4.27,7.11,1.76,1.76,0,0,1,6,5.33ZM26,5.33a1.78,1.78,0,1,1-1.78,1.78A1.76,1.76,0,0,1,26,5.33ZM11.38,9.24A2.65,2.65,0,0,0,9.43,10a3.44,3.44,0,0,0-.54,2.06H2.13a2.17,2.17,0,0,0-1.59.63A2.18,2.18,0,0,0,0,14.22C0,14.29,2.87,28.3,2.87,28.3a1.1,1.1,0,0,0,1,.86H8.18a1.1,1.1,0,0,0,1-.86l1.39-6.76,1.74,9.58a1.1,1.1,0,0,0,1.06.88h5.18a1.1,1.1,0,0,0,1.06-.88l1.74-9.58,1.39,6.76a1.1,1.1,0,0,0,1,.86h4.27a1.1,1.1,0,0,0,1-.86S32,14.29,32,14.22a2,2,0,0,0-2.13-2.13H23.11A3.44,3.44,0,0,0,22.57,10a2.65,2.65,0,0,0-1.94-.79Zm.36,2.13h8.53c.44,0,.8.2.71.71l-3.2,17.78H14.22L11,12.09C10.93,11.58,11.29,11.38,11.73,11.38ZM2.16,14.22H9.28l.31,1.69L7.31,27H4.78Zm20.57,0h7.12L27.22,27H24.69L22.41,15.91Z"/></g></g></svg>