<svg id="Capa_1" data-name="Capa 1" xmlns="http://www.w3.org/2000/svg" viewBox="0 0 40.9 97.73"><defs><style>.cls-1{fill:#cbbe6d;}</style></defs><title>torre</title><path class="cls-1" d="M36.17,21.73c-2.3-.15-7.45-.21-9.43-.21,0,2.76-.06,5.62.06,8.47,0,.45.71,1,1.22,1.29,3.67,2,7.38,4,11,6a8.9,8.9,0,0,1,1.59,1.5l-2.11.59c-.29.08-.59.13-1.4.32a96.72,96.72,0,0,0-10.42-.12c0,.55,0,1.24,0,1.92-.55,8.19.67,16.2,2.55,24.14.6,2.55,1.17,5.12,1.54,7.71,1.11,7.74,5.16,14.38,8,21.45.24.59,1.22.88,2,1.44v1.41H30.74c0-.53-.06-1.13-.09-1.82l2.14-.26C31.66,94,30.66,92.45,29.63,91Q26.34,86.19,23,81.42c-.87-1.25-4-1.63-4.8-.48C14.81,85.73,11.47,90.57,8,95.59l2.17.25v1.89H0V96c.16-.1.27-.24.36-.23,1.24.15,1.58-.67,2.07-1.61,5.9-11.28,8.69-23.54,11.31-35.85a38.45,38.45,0,0,0,1.19-6.16c.19-4.17.06-8.37.06-12.67-2.33,0-11-.06-11.17-.08l-2.74-.57a14.5,14.5,0,0,1,2.2-1.92c3.47-2,7-3.85,10.49-5.82.49-.28,1.13-.87,1.15-1.34C15,27,15,24.3,15,21.52c-1.66,0-3.18.17-8.19,0a16.34,16.34,0,0,1-2-.26,9.17,9.17,0,0,1-1.3-.58c.31-.38.53-.88.93-1.12,2.88-1.7,5.82-3.29,8.66-5.05a8.8,8.8,0,0,0,2.18-2.28c.87-1.15,1.54-2.44,2.4-3.6,1.6-2.14,2.89-4.33,2.46-7.19C20.08,1,20.67.49,21,0c.22.49.69,1,.61,1.45-.5,2.95,1,5.12,2.55,7.36,1,1.44,1.74,3,2.67,4.54a3.28,3.28,0,0,0,1.17,1c2.84,1.64,5.71,3.22,8.54,4.88a11.35,11.35,0,0,1,1.67,1.47Zm1,73c-2-4.65-4-9.2-6-13.74-.11-.26-.42-.6-.64-.61-2,0-4.08,0-6.42,0,3.16,4.57,6.13,8.73,8.93,13C34,94.92,35.13,95.39,37.17,94.77Zm-33.41,0c1.74.53,2.88.31,3.86-1.19,2-3.07,4.18-6,6.28-9,.92-1.31,1.81-2.64,2.89-4.2a16.32,16.32,0,0,1-2.72,0c-3.19-.62-4.76.78-5.78,3.77C7.06,87.73,5.31,91.18,3.76,94.78ZM28,70.72c-2.42-1-4.56-2-6.71-2.87a1.66,1.66,0,0,0-1.13,0c-2.25.9-4.48,1.85-7.06,2.93,2.44,1.16,4.48,2.17,6.56,3.09a2.06,2.06,0,0,0,1.48,0C23.39,72.87,25.57,71.84,28,70.72ZM20.8,30.11l4.31-5.49c-3.86-4.43-4.72-4.41-8.47.16ZM15.39,63.71c3.91,2.83,6.78,2.83,10.83,0C21.58,60.52,20,60.52,15.39,63.71Zm5.5-57.22-4.61,6.93h9.17Zm4.46,47.17H18.81c-2.66,0-2.66,0-2.95,2.89H26Zm5.11,25.26L29,71.61l-7.16,3.25ZM4.9,37.7h10V32.24Zm16,8.29-4.24,6.14h8.46Zm5.93-8.23h9.33l.1-.32-9.43-5.1ZM10.52,78.64l8.4-3.81-6.74-3.2Zm5.83-40.9h8.91L20.8,32Zm-2.5,40.72.13.26H26.56a37.72,37.72,0,0,0-5.4-2.83,2.09,2.09,0,0,0-1.47-.06C17.72,76.65,15.79,77.57,13.85,78.46Zm2.76-28.37c1.22-1.76,2.2-3.11,3.1-4.51a1.36,1.36,0,0,0,0-1.2c-.91-1.44-1.92-2.82-3.12-4.56Zm7.71-35.17H17.63L21,19Zm.74,35V40l-3.43,5ZM14.92,15.24,7.7,19.4l.19.29h7Zm18.84,4.51.19-.36-7.1-4v4.38ZM25.08,35.58v-9l-3.51,4.45Zm-8.51,0,3.49-4.47L16.56,26.7ZM12.64,69.63l6.51-2.71-5.33-2.28Zm9.62-2.7,6.32,2.69-1-4.92ZM23.9,39.58h-6l3.06,4.28ZM14.29,62.72l5.15-2.57-4.15-2Zm12-4.62-4.1,2.08,5,2.46Zm-6-38.36L16.6,16.41v3.33Zm4.85,0v-3.1l-2.85,3.1ZM23.28,58H18.09C19.89,59.49,21.51,59.78,23.28,58Z"/></svg>